<?xml version="1.0" encoding="UTF-8"?>
<svg width="411px" height="406px" viewBox="0 0 411 406" version="1.1" xmlns="http://www.w3.org/2000/svg" xmlns:xlink="http://www.w3.org/1999/xlink">
    <!-- Generator: Sketch 55.2 (78181) - https://sketchapp.com -->
    <title>Shape</title>
    <desc>Created with Sketch.</desc>
    <g id="Page-1" stroke="none" stroke-width="1" fill="none" fill-rule="evenodd">
        <g id="magnifier-with-small-handle" fill="#FFFFFF" fill-rule="nonzero">
            <path d="M410.587,369.351 L360.543,319.307 L320.677,279.441 C341.182,250.599 353.362,215.445 353.362,177.432 C353.362,80.008 274.099,0.745 176.678,0.745 C79.251,0.745 0,80.008 0,177.432 C0,274.855 79.251,354.107 176.678,354.107 C217.376,354.107 254.794,340.144 284.688,316.94 L353.196,385.448 C354.037,386.289 354.98,386.957 355.901,387.655 L374.095,405.843 L410.587,369.351 Z M176.689,312.548 C102.186,312.542 41.578,251.926 41.578,177.437 C41.578,102.937 102.192,42.329 176.689,42.329 C251.187,42.329 311.797,102.937 311.797,177.437 C311.797,208.435 301.207,236.944 283.579,259.77 C277.746,267.307 271.205,274.26 263.937,280.424 C240.374,300.409 209.94,312.548 176.689,312.548 Z" id="Shape"></path>
        </g>
    </g>
</svg>